<?xml version="1.0" encoding="iso-8859-1"?>
<!-- Generator: Adobe Illustrator 19.0.0, SVG Export Plug-In . SVG Version: 6.00 Build 0)  -->
<svg version="1.1" id="Capa_1" xmlns="http://www.w3.org/2000/svg" xmlns:xlink="http://www.w3.org/1999/xlink" x="0px" y="0px"
	 viewBox="0 0 512 512" style="enable-background:new 0 0 512 512;" xml:space="preserve">
<g>
	<g>
		<g>
			<path d="M171.029,93.677c-5.52,0-10.01,4.481-10.01,10v19.963h-22.256c-18.067,0-32.764,14.697-32.764,32.764v49.171v167.66
				c0,18.067,14.698,32.765,32.764,32.765h234.474c18.067,0,32.764-14.698,32.764-32.765v-167.66v-49.171
				c0-18.067-14.698-32.764-32.764-32.764h-22.216v-19.963c0-5.52-4.48-10-9.99-10c-5.52,0-10.01,4.481-10.01,10v19.963h-36.66
				v-20.113c0-5.521-4.49-10-10-10c-5.52,0-10,4.48-10,10v20.113h-36.67v-20.113c0-5.521-4.48-10-10-10c-5.51,0-10,4.48-10,10
				v20.113h-36.67v-19.963C181.019,98.157,176.539,93.677,171.029,93.677z M386.001,373.236c0,7.038-5.726,12.765-12.764,12.765
				H138.763c-7.038,0-12.764-5.727-12.764-12.765v-157.66h260.002V373.236z M217.689,143.64v19.738c0,5.51,4.49,10,10,10
				c5.52,0,10-4.49,10-10V143.64h36.67v19.738c0,5.51,4.48,10,10,10c5.51,0,10-4.49,10-10V143.64h36.66v19.888
				c0,5.51,4.49,10,10.01,10c5.51,0,9.99-4.49,9.99-10V143.64h22.216c7.038,0,12.764,5.726,12.764,12.764v39.171h-260v-39.171
				c0-7.038,5.726-12.764,12.764-12.764h22.256v19.888c0,5.51,4.49,10,10.01,10c5.51,0,9.99-4.49,9.99-10V143.64H217.689z"/>
			<path d="M165.999,267.999H346c5.523,0,10-4.478,10-10c0-5.523-4.477-10-10-10H165.999c-5.523,0-10,4.478-10,10
				C155.999,263.521,160.476,267.999,165.999,267.999z"/>
			<path d="M165.999,310H346c5.523,0,10-4.478,10-10c0-5.522-4.477-10-10-10H165.999c-5.523,0-10,4.478-10,10
				C155.999,305.522,160.476,310,165.999,310z"/>
			<path d="M165.999,352H346c5.523,0,10-4.478,10-10c0-5.522-4.477-10-10-10H165.999c-5.523,0-10,4.478-10,10
				C155.999,347.522,160.476,352,165.999,352z"/>
			<path d="M387.296,59.835l-20.144,4.428c-5.394,1.186-8.806,6.52-7.62,11.913c1.026,4.672,5.164,7.856,9.757,7.856
				c0.711,0,43.264-9.271,43.329-9.285c6.455-1.419,10.086-8.86,6.943-14.726l-9.634-39.901c-1.296-5.368-6.697-8.669-12.068-7.374
				c-5.369,1.296-8.67,6.699-7.374,12.068l3.792,15.705C349.682,11.852,297.064-2.31,243.394,0.307
				C179.828,3.42,120.017,29.938,74.979,74.977S3.423,179.827,0.31,243.393c-3.091,63.116,17.036,124.786,56.675,173.654
				c3.34,4.118,9.837,4.897,14.066,1.467c4.289-3.48,4.946-9.777,1.466-14.067C-3.754,310.419,3.384,174.857,89.122,89.12
				C169.774,8.464,294.513-2.623,387.296,59.835z"/>
			<path d="M455.015,94.95c-3.479-4.289-9.775-4.945-14.066-1.467c-4.289,3.48-4.946,9.777-1.466,14.067
				c76.272,94.028,69.133,229.591-16.604,315.328c-80.696,80.698-205.523,91.754-298.322,29.184l19.761-4.344
				c5.394-1.186,8.806-6.52,7.62-11.913c-1.185-5.396-6.522-8.806-11.914-7.62c0,0-41.104,9.035-41.172,9.05
				c-5.372,1.181-8.864,6.772-7.574,12.113c0,0,10.248,42.446,10.265,42.514c3.014,12.484,22.476,7.87,19.442-4.693l-3.881-16.074
				C158.326,497.762,206.457,512,255.957,512c4.206,0,8.426-0.104,12.649-0.31c63.566-3.113,123.377-29.631,168.415-74.67
				c45.038-45.039,71.556-104.85,74.67-168.416C514.781,205.489,494.654,143.818,455.015,94.95z"/>
		</g>
	</g>
</g>
<g>
</g>
<g>
</g>
<g>
</g>
<g>
</g>
<g>
</g>
<g>
</g>
<g>
</g>
<g>
</g>
<g>
</g>
<g>
</g>
<g>
</g>
<g>
</g>
<g>
</g>
<g>
</g>
<g>
</g>
</svg>
